<?xml version="1.0" encoding="UTF-8" standalone="no"?>
<svg
   xmlns:dc="http://purl.org/dc/elements/1.1/"
   xmlns:cc="http://creativecommons.org/ns#"
   xmlns:rdf="http://www.w3.org/1999/02/22-rdf-syntax-ns#"
   xmlns:svg="http://www.w3.org/2000/svg"
   xmlns="http://www.w3.org/2000/svg"
   viewBox="0 0 612 792"
   id="svg2"
   height="792"
   width="612"
   version="1.1">
  <metadata
     id="metadata10">
    <rdf:RDF>
      <cc:Work
         rdf:about="">
        <dc:format>image/svg+xml</dc:format>
        <dc:type
           rdf:resource="http://purl.org/dc/dcmitype/StillImage" />
      </cc:Work>
    </rdf:RDF>
  </metadata>
  <defs
     id="defs8" />
  <path
     id="path4"
     style="fill:#1b1918;fill-rule:evenodd;stroke:#1b1918;stroke-width:0.21600001;stroke-linecap:butt;stroke-linejoin:miter;stroke-dasharray:none"
     d="m 102.117,187.3474 c -7.12,-1.78 -4.45,-5.34 -12.46,-5.34 0,8.9 3.56,10.68 3.56,18.69 l 0,30.2602 c 0,12.4602 -8.01,8.9002 10.6802,29.3702 5.34,7.12 4.45,18.6902 5.34,25.8102 0,3.56 1.78,8.9 2.67,12.46 l 2.67,13.3503 c 0,2.67 0,4.45 0,7.12 0,2.6699 0.89,3.5599 1.78,6.2299 0.89,6.2303 1.78,7.1203 6.23,9.7903 1.78,-0.89 0.89,-0.89 3.56,-0.89 2.67,-12.4603 -4.45,-8.9003 -4.45,-17.8002 0,-3.56 0,-7.12 3.56,-7.12 4.45,0 2.67,8.01 8.01,11.5699 10.6803,5.34 16.0203,-2.6699 21.3603,8.9003 0.89,4.45 1.78,16.02 13.3502,16.91 l -0.89,-12.46 c 16.02,-8.0103 15.13,-0.89 19.58,6.23 9.7903,12.46 3.56,5.34 7.12,11.57 1.7803,2.67 6.2303,7.1202 8.9003,9.7902 3.56,3.56 6.23,6.23 13.35,6.23 -4.45,-8.9 -14.24,-13.3502 -14.24,-24.9202 0,-4.45 1.78,-7.12 2.67,-9.79 0.89,-6.2303 0,-5.3403 3.56,-9.7903 1.78,-1.78 5.34,-5.3399 7.12,-6.2299 0,0 13.3502,-6.23 13.3502,0 0,4.4499 -4.4502,1.78 -4.4502,8.8999 14.2402,0 9.7902,-12.4599 22.2502,-19.5799 3.56,-2.67 4.45,-1.78 7.12,-6.23 12.4603,-15.1303 11.5703,-7.1203 20.4703,-11.5703 1.78,-1.78 1.78,-1.78 4.45,-2.67 5.34,-2.67 3.56,0 7.1203,-6.23 -3.5603,-4.45 -8.0103,-3.56 -15.1303,-3.56 l -3.56,0.89 c -11.57,2.67 -32.0403,1.78 -44.5005,-3.5599 -4.45,-1.78 -9.79,-6.2303 -9.79,-11.5703 -16.02,0 -21.3603,-7.12 -23.1403,-22.25 -0.89,-10.6802 -15.5766,-17.7997 1.3336,-36.4899 0,0 2.67,-3.56 2.67,-3.56 0.89,-2.67 1.3357,-12.4628 1.3357,-16.9128 -5.34,0 -5.1182,5.7864 -9.5685,9.3464 -6.23,3.56 -6.2287,12.9059 -10.6787,18.2459 l -2.0021,6.2302 c -1.78,2.67 -1.78,2.67 -5.34,2.67 -1.78,-7.12 0.89,-7.12 -2.67,-16.9102 l -1.7802,-5.34 c -4.45,-11.57 3.2203,-14.1287 -6.5697,-21.2487 -0.4449,32.0473 -5.0003,-3.6715 -5.8903,-4.5615 0,-15.13 -0.89,-42.7202 3.56,-54.2905 l 3.3369,-10.4574 c 1.78,-3.56 2.8931,-5.5626 4.6731,-8.2326 3.5595,-10.6787 24.2528,-29.1426 24.6984,-33.5981 -31.6711,-17.2759 -67.4964,99.4891 -53.1936,42.1668 1.5088,-6.0465 -10.543,-1.5312 -16.0051,10.1213 -0.89,3.56 -2.67,5.3403 -4.45,8.0103 -10.6802,25.8099 -1.78,26.7002 -5.34,42.7202 -0.89,1.78 -1.78,2.67 -1.78,4.45 -0.89,8.9002 2.67,6.23 -3.5602,15.1302 z M 464.3501,59.1863 c 0,1.78 2.6702,4.4502 3.5602,7.1202 0.431,0.6465 5.6327,44.2678 5.34,48.9502 0,19.6279 -9.8624,22.6833 -11.5702,32.9302 -1.78,4.4503 -0.89,3.5603 -2.67,8.0103 -2.67,5.34 -3.56,10.68 -6.23,16.02 -1.78,5.34 -8.9,20.4702 -8.9,24.9202 -8.0103,0 -6.23,-5.34 -4.45,-11.57 1.78,-3.56 1.78,-3.56 3.56,-6.2303 3.56,-5.3399 0.89,-3.5599 0.89,-7.1199 -5.34,-0.89 -8.9003,0 -10.6803,5.34 -2.67,6.2302 -0.89,4.4502 -6.23,8.0102 0,1.78 4.45,14.24 -2.67,23.14 -2.67,2.6702 -10.68,3.5602 -15.13,3.5602 0,7.12 -6.2303,9.79 -8.9003,15.13 -2.67,6.23 -2.67,18.6902 -14.24,22.2502 -4.45,0.89 -8.01,-0.89 -11.5702,0.89 -2.67,0.89 -1.78,0.89 -4.45,1.78 -1.78,0.89 -2.67,0.89 -4.45,1.78 -4.45,0.89 -5.34,2.67 -7.12,5.34 0.89,5.34 1.78,4.45 5.34,6.23 -1.78,2.67 -0.89,4.4503 -2.67,6.2303 l -5.34,4.4499 c -4.45,4.45 -8.01,0.89 -12.4603,7.12 -3.56,2.67 -7.12,6.23 -8.9,11.57 -2.67,9.7903 5.34,2.67 8.9,0.89 12.4603,-7.12 13.3503,6.2303 22.2503,10.6803 7.12,3.56 9.79,10.68 17.8002,11.57 6.23,0.89 10.68,3.5599 15.13,-1.78 2.67,-4.45 0,-11.57 16.9103,-4.45 l 8.9,7.12 c 0.89,6.2299 -1.78,12.4602 -4.45,16.9102 1.78,1.78 3.56,6.23 7.12,6.23 5.34,-2.67 2.67,-0.89 3.56,-7.12 0,-8.0103 8.0103,-20.4702 14.2403,-24.0302 6.23,-4.45 13.35,-7.12 19.58,-12.4603 0.89,-1.78 1.78,-2.67 2.6702,-4.45 3.56,-3.56 8.01,-1.78 8.01,2.67 0,2.6703 -4.45,5.3403 -5.34,9.7903 -0.89,4.45 0,5.34 0,11.57 9.79,0 8.01,-7.12 12.46,-15.13 0.89,-1.78 2.67,-3.56 4.45,-5.3403 3.56,0.89 3.56,2.6703 8.01,2.6703 0,-7.1203 -0.89,-8.9003 1.78,-14.2403 1.7803,-3.56 1.7803,-7.12 4.4503,-11.57 l 7.12,-8.9002 c 2.67,-3.56 29.1525,-35.8291 29.1525,-41.1691 0,-9.79 -38.0535,43.8426 -31.8235,31.3827 13.35,-25.8103 8.901,-39.1638 8.901,-47.174 0,-3.56 0.89,-4.45 1.78,-7.12 0,-3.56 -1.78,-4.45 -1.78,-8.01 0,-5.34 3.56,-16.9102 3.56,-19.5802 -0.89,-1.78 -3.56,-4.45 -5.34,-6.23 -6.23,-9.79 -2.67,-15.13 0,-26.7003 1.78,-5.34 1.78,-3.56 0.89,-8.8999 -0.89,-2.67 -0.89,-6.23 -1.78,-9.79 -14.24,0 -1.78,17.7999 -11.57,17.7999 -6.2303,0 -7.121,-14.6841 -7.121,-20.9143 0,-11.2414 -5.9323,-54.0686 -15.1293,-60.9663 -2.67,-1.78 -13.3502,-5.34 -13.3502,0.89 z M 386.0295,279.908 c 1.78,-5.34 14.24,-10.6799 17.8,-13.3502 4.4503,-3.56 1.78,-2.67 11.5703,-8.9 l 29.3703,-21.3602 c 10.68,-7.12 8.01,-3.56 13.35,-5.34 5.34,-0.89 4.45,-5.34 9.7902,-10.68 2.67,-2.67 3.56,-1.78 7.12,-3.56 3.56,-2.67 0,-2.67 7.12,-2.67 6.23,8.9 5.34,17.8 0.89,27.5902 l -4.45,9.79 c -1.78,3.56 -1.78,7.12 -7.12,9.79 -6.2302,3.56 -0.89,0.89 -9.7902,10.6803 -3.56,5.3399 -3.56,3.5599 -9.79,4.4499 l -12.46,6.23 c -2.67,0.89 -5.3403,0.89 -7.1203,1.78 l -15.13,2.67 c -1.78,0 -5.34,-1.78 -8.01,-1.78 -9.7903,-0.89 -5.3403,1.78 -17.8003,-1.78 -3.56,-0.89 -3.56,-0.89 -5.34,-3.56 z M 175.9877,269.2281 c 1.78,1.78 1.78,3.56 5.34,4.45 l 2.67,0.8899 c 6.23,2.67 16.0203,12.46 21.3603,14.24 0,4.45 0.89,2.67 -1.78,5.34 -3.56,6.2303 -12.4603,8.0103 -19.5803,8.0103 -8.01,0 -22.2502,-4.4503 -28.4802,-9.7903 -4.45,-4.45 -9.79,-7.12 -14.24,-10.68 l -7.12,-7.12 c -6.2303,-5.3399 -1.7803,0 -5.3403,-8.9002 -7.12,-16.02 -9.79,-18.69 -7.12,-37.3802 0.89,-2.67 0,-6.23 0,-11.57 0,-2.67 -0.89,-5.34 4.45,-5.34 0.89,4.45 1.78,2.67 3.56,6.23 1.78,1.78 2.67,4.45 3.56,6.23 1.7803,5.34 0.8903,3.56 3.5603,6.23 3.56,3.56 1.78,1.78 3.56,6.23 1.78,2.67 3.56,2.67 5.34,4.4502 l 17.8,21.36 c 0.8902,0 2.6702,1.78 3.5602,1.78 0,0 0,0 0.89,0 l 8.01,5.3403 z m 357.1712,71.4229 c -0.5049,-0.5064 1.5166,-3.7696 0.8347,-9.7899 -0.89,-4.4503 -1.2238,-1.1124 0.5562,-5.5624 0.89,-1.78 0.111,-1.7805 0.111,-4.4505 -1.78,0 -0.89,0 -1.78,0.89 -4.45,0.89 -5.34,2.67 -7.1202,5.34 l -1.78,0.89 c -0.89,1.7803 0,2.6703 -0.89,4.4503 -1.78,8.01 -2.5595,16.3536 -5.2295,22.5836 -5.8174,-5.8175 -0.8759,-8.8511 -9.0105,-4.7836 -9.79,6.23 -17.8003,15.1302 -25.8103,23.1402 -1.78,1.78 -3.56,2.67 -5.34,4.45 -4.45,3.56 -6.23,6.23 -9.79,10.6802 -2.6702,1.78 -3.5602,2.67 -5.3402,4.45 -3.56,4.45 -9.79,8.9 -8.01,14.24 6.23,17.8002 8.9,5.34 4.45,25.8102 -6.0385,0 -1.9847,-4.0717 -5.34,-12.46 -2.67,-2.67 -6.23,-3.56 -10.68,-3.56 -16.9103,-0.8902 -20.4703,9.79 -32.0403,18.69 -6.2303,5.34 -11.5703,11.5703 -18.6903,15.1303 -2.67,1.78 -4.45,5.34 -7.12,8.01 -0.4186,-0.0838 -7.3312,5.1214 -9.7902,7.1199 -3.7942,2.8457 -7.2606,5.256 -5.609,-0.0805 0.078,-0.252 0.1675,-0.5218 0.269,-0.8095 3.56,-2.67 6.2302,-3.56 8.9002,-7.1199 1.78,-2.67 5.34,-8.01 7.12,-8.9 -4.45,-2.6703 -11.5702,0.89 -15.1302,4.45 -1.78,0.89 -2.67,2.67 -4.45,3.56 -1.78,1.78 -7.12,2.6699 -9.79,4.4499 -5.34,2.67 -15.1303,8.01 -20.4703,8.9 -7.12,0.89 -6.23,0 -12.46,2.67 -8.01,2.67 -15.1302,3.5603 -24.0302,5.3403 -3.56,0.89 -9.79,0 -11.57,0 -8.9003,0.89 -16.0203,1.78 -24.9203,-1.78 -3.56,-0.8903 -15.1303,-1.7803 -24.0303,-5.3403 -2.67,-0.89 -2.67,-1.78 -5.34,-1.78 -2.67,-0.89 -3.56,-0.89 -6.23,-1.78 -11.3209,-4.8517 -10.8235,-9.0206 -22.2502,-4.45 0.89,1.78 2.67,1.78 4.45,4.45 2.4295,4.8591 2.1878,10.541 7.12,14.2403 13.8332,14.8261 -2.1431,9.2457 -12.46,-6.2303 l -10.6803,-17.7999 c -5.34,-6.23 -9.79,-13.3503 -16.91,-17.8003 -2.67,-1.78 -4.45,-2.67 -8.01,-4.45 -5.3402,-4.45 -11.5702,-4.45 -16.9102,-8.9 -2.67,-1.78 -4.45,-3.56 -7.12,-6.23 -3.56,-1.78 -4.45,-2.67 -8.01,-4.4502 -5.3403,-1.78 -21.3603,-12.46 -25.8103,-13.35 -3.56,2.67 -5.34,6.23 -5.34,12.46 l -3.5602,0 c 0,-10.68 3.5602,-14.24 0,-21.36 -5.34,-8.0102 5.3402,-0.89 -17.8,-24.9202 -12.4603,-11.5702 -7.1201,-11.5702 -13.3503,-20.4702 l -13.35,-20.4703 0,-8.8999 c 6.23,0.8899 6.23,5.3399 9.79,8.8999 3.56,4.4503 8.0102,0 16.0203,11.5703 5.34,8.01 5.34,4.45 10.68,18.6902 0,2.67 0.89,4.45 1.78,7.12 2.67,2.67 2.67,0.89 4.45,5.34 2.67,7.12 8.9002,9.79 13.3502,14.24 l 11.57,8.0102 c 2.67,1.78 2.67,2.67 7.12,2.67 4.4503,-8.01 -3.56,-5.34 -3.56,-14.2402 8.0103,-1.78 9.7903,7.1202 15.1303,11.5702 4.45,5.34 8.9,9.79 14.24,14.24 3.56,3.56 4.45,2.67 8.9002,5.34 6.23,2.67 9.79,0.89 16.91,4.4502 6.23,3.56 10.6803,3.56 15.1303,6.23 6.23,2.67 5.34,0.89 12.46,1.78 4.45,0 13.7966,9.3462 17.3566,5.7862 3.5603,-5.34 -7.5666,-19.1364 3.1136,-28.0364 l 4.45,-2.67 c 5.34,0.89 1.78,8.9 2.67,15.13 0.89,3.5602 3.56,5.3402 5.34,8.9002 3.56,6.23 3.56,2.67 8.9,6.23 3.5603,2.67 2.6703,5.34 8.0103,6.23 6.23,2.67 4.45,-0.89 18.69,1.78 7.1203,0.89 9.7903,0.89 16.0203,-0.89 6.23,-0.89 8.9,2.67 15.13,0.89 l 1.78,0 c 4.4502,-0.89 16.9102,0 22.2502,-4.45 8.01,-7.12 7.12,-5.34 11.5703,-9.79 3.56,-1.78 0,0 4.45,-2.67 l 8.9,-5.3402 c 6.23,-3.56 9.79,-3.56 15.13,-6.23 l 17.8002,-10.68 c 3.5308,-2.9423 26.4543,-6.8742 37.3803,-17.8002 5.34,-4.45 9.7903,-6.23 14.2403,-11.57 1.78,-2.67 3.56,-4.45 6.23,-6.23 2.67,-1.78 5.34,-2.67 8.01,-5.34 9.7902,-10.6802 -14.2461,23.145 -9.7961,23.145 3.56,0 33.8263,-27.5952 37.3863,-29.3752 0.89,-0.89 1.78,-0.89 3.56,-1.78 5.34,-3.56 6.23,-8.01 11.5703,-10.68 l 5.34,-5.34 c 3.56,-5.34 4.45,-3.56 7.12,-7.1203 l 16.9102,-16.0199 c 4.45,-2.67 1.78,-1.78 3.56,-3.56 1.78,-2.67 2.67,-5.34 5.34,-7.12 11.2261,-11.2271 30.9954,-44.2971 38.9408,-46.0627 -0.89,5.34 -16.6905,25.5924 -18.4705,29.1524 -3.0367,4.555 -5.201,10.4711 -7.1203,13.35 l -6.23,10.6803 c -0.89,0 -0.89,0.89 -1.78,0.89 -2.67,4.45 -1.78,1.78 -2.67,7.12 l -6.23,21.3602 c -0.89,3.56 0,3.56 -2.67,5.34 0,0 -0.6119,-1.5575 -0.6119,-1.5575 z" />
</svg>
